HIERARCHY
ROOT pelvis
{
  OFFSET 0 100 0
  CHANNELS 6 Xposition Yposition Zposition Zrotation Xrotation Yrotation
  JOINT pelvis_right_femur
  {
    OFFSET -10.78128 -3.44521 -0.5502486
    CHANNELS 3 Zrotation Xrotation Yrotation
    JOINT right_femur_tibia
    {
      OFFSET -0.8047443 -44.0398 -0.1307829
      CHANNELS 3 Zrotation Xrotation Yrotation
      JOINT right_tibia_foot
      {
        OFFSET 3.006224 -47.83518 -5
        CHANNELS 3 Zrotation Xrotation Yrotation
        End Site
        {
          OFFSET 0 -5 15
        }
      }
    }
  }
  JOINT pelvis_left_femur
  {
    OFFSET 10.78128 -3.44521 -0.5502486
    CHANNELS 3 Zrotation Xrotation Yrotation
    JOINT left_femur_tibia
    {
      OFFSET 0.8047443 -44.0398 -0.1307829
      CHANNELS 3 Zrotation Xrotation Yrotation
      JOINT left_tibia_foot
      {
        OFFSET -4.370144 -48.10324 -4.275266
        CHANNELS 3 Zrotation Xrotation Yrotation
        End Site
        {
          OFFSET 0 -5 15
        }
      }
    }
  }
  JOINT pelvis_spine1
  {
    OFFSET 0 6.468898 -3.129235
    CHANNELS 3 Zrotation Xrotation Yrotation
    JOINT spine1
    {
      OFFSET 0 23.15396 4.99043
      CHANNELS 3 Zrotation Xrotation Yrotation
      JOINT spine2
      {
        OFFSET 0 20.79997 -5.064912
        CHANNELS 3 Zrotation Xrotation Yrotation
        JOINT neck
        {
          OFFSET 0 14.38658 9.616178
          CHANNELS 3 Zrotation Xrotation Yrotation
          End Site
          {
            OFFSET 0 20 0
          }
        }
      }
      JOINT right_manubrium
      {
        OFFSET -5.722621 16.35077 3.967754
        CHANNELS 3 Zrotation Xrotation Yrotation
        JOINT right_clavicle
        {
          OFFSET -13.16364 1.694482 -4.693211
          CHANNELS 3 Zrotation Xrotation Yrotation
          JOINT right_humerus
          {
            OFFSET -28.5034 -0.3100689 -2.792744
            CHANNELS 3 Zrotation Xrotation Yrotation
            JOINT right_radius
            {
              OFFSET -25.15693 0.02248979 -1.271978
              CHANNELS 3 Zrotation Xrotation Yrotation
              End Site
              {
                OFFSET -15 0 0
              }
            }
          }
        }
      }
      JOINT left_manubrium
      {
        OFFSET 5.722621 16.35077 3.967754
        CHANNELS 3 Zrotation Xrotation Yrotation
        JOINT left_clavicle
        {
          OFFSET 13.16364 1.694482 -4.693211
          CHANNELS 3 Zrotation Xrotation Yrotation
          JOINT left_humerus
          {
            OFFSET 29.39168 -1.063119 -2.237045
            CHANNELS 3 Zrotation Xrotation Yrotation
            JOINT left_radius
            {
              OFFSET 24.59957 -0.9528479 0.9047498
              CHANNELS 3 Zrotation Xrotation Yrotation
              End Site
              {
                OFFSET 15 -0 -0
              }
            }
          }
        }
      }
    }
  }
}
MOTION
Frames: 9
Frame Time: 0.0416666666667
0 103.5113 0 2.116049 -0.09122851 0.1710812 2.19952 -16.284 11.84799 -0 39.99779 -0 -5.360444 -18.82061 -3.641044 -8.242473 9.228262 -24.30356 -0 3.605764 -0 16.37224 -12.78768 30.28749 -4.653531 -4.320347 5.683325 2.661102 10.21984 -7.532954 1.750639 21.5558 6.17302 2.269659 -24.79546 10.11805 6.890802 -20.60059 11.6996 85.13071 38.64475 -17.53006 -0 0 17.1973 -5.371394 8.237913 4.339886 5.314289 -18.3747 -0.8699776 -90.91582 20.1551 19.71607 0 0 -14.68139 16.00267 12.63577 -4.513181
0.4229037 103.4313 1.457495 1.661829 0.2704926 0.3031876 2.960259 -17.89054 11.51211 -0 38.55755 -0 -5.155257 -17.86299 -3.394198 -7.921066 9.370713 -23.73052 -0 4.123614 -0 15.68026 -13.22296 29.71068 -4.296822 -4.093769 5.572965 2.736054 10.26827 -7.6311 1.703172 21.36296 6.350245 2.412252 -25.03467 10.16529 6.823013 -20.5476 11.72566 85.23812 38.52644 -17.80751 -0 0 17.05703 -5.67073 8.526385 4.35947 5.541955 -18.70412 -0.9493924 -91.04901 20.26672 19.87835 0 0 -15.36218 15.84393 12.70525 -4.183372
0.8434392 102.9932 4.674652 -0.4566269 -2.901385 0.4874952 3.027781 -22.49372 2.412086 -0 35.35528 -0 -8.173104 -2.659558 -0.4416835 -5.386891 10.31406 -17.53414 -0 6.921931 -0 7.099034 -16.50928 22.03721 -1.926794 -1.566249 2.866889 1.453367 11.20943 -6.714958 1.336704 22.4588 7.486928 3.991524 -23.02727 9.043441 4.581346 -19.11423 12.01881 87.03791 30.9891 -17.50744 -0 0 12.48502 -16.27228 10.30529 8.583431 6.854942 -21.85656 -4.40102 -89.72291 19.13474 17.32478 0 0 -16.75606 14.59846 16.85686 -3.128304
1.239718 102.5952 8.31583 -0.7138101 -2.411358 0.6777609 3.270438 -25.35111 0.7946385 -0 30.84077 -0 -8.216991 -0.8723823 0.1889778 -5.174213 11.03996 -16.11739 -0 7.646019 -0 6.090857 -17.50507 20.39905 -1.682629 -1.242234 2.686287 1.542118 11.23838 -6.912534 1.184019 22.28421 7.649146 4.275248 -22.93482 8.749639 4.396633 -18.71016 12.0049 87.31801 30.55764 -18.23989 -0 0 11.67512 -17.08781 10.5518 8.700377 7.352286 -22.74634 -4.775001 -89.10197 18.76593 16.28303 0 0 -18.48456 14.91892 16.71868 -3.605464
1.580723 102.1933 12.10666 -0.8160445 0.06449591 0.9263801 4.615743 -29.96981 1.575563 -0 24.11906 -0 -7.31011 -2.088673 0.2169387 -5.540707 12.4932 -16.08375 -0 8.562565 -0 6.472942 -19.10369 20.08962 -1.929282 -1.423783 3.174309 2.230239 10.75456 -7.559527 1.173399 21.58448 7.524323 4.182601 -24.1285 8.868003 4.77883 -18.42574 11.82141 87.5462 32.7532 -20.06244 -0 0 11.35941 -14.13697 10.24635 7.179518 7.65938 -23.17329 -3.95909 -88.75026 20.18109 15.91497 0 0 -22.12585 14.56825 15.71158 -2.75339
1.882872 101.5546 16.19732 -0.7210292 0.9829819 1.220963 4.928389 -32.41631 0.8466261 -0 19.23185 -0 -7.347488 -1.164123 0.5019894 -5.785409 13.497 -15.31932 -0 9.514851 -0 6.05955 -20.31625 19.15601 -2.088602 -1.366153 3.267458 2.428829 10.53213 -7.753931 1.182627 21.43412 7.353469 4.158996 -24.35479 8.668345 4.53849 -18.04851 11.67358 88.18289 32.93485 -21.17862 -0 0 10.38474 -13.42337 9.8612 6.759668 7.934262 -23.79322 -3.85205 -87.98474 20.68236 14.79128 0 0 -24.71506 14.33525 15.25912 -2.376646
2.155845 100.6609 20.73089 -0.4297583 0.8447528 1.58524 4.276513 -33.63831 -1.30896 -0 14.88061 -0 -8.010039 1.111755 0.9577423 -5.994033 14.50826 -13.86139 -0 10.30988 -0 5.127237 -21.41764 17.53981 -2.213294 -1.211203 3.064059 2.329074 10.49858 -7.740995 1.152083 21.66171 7.153689 4.168527 -23.86688 8.180232 3.823287 -17.57166 11.56221 89.13539 31.56663 -21.99551 -0 0 8.781567 -14.42019 9.520063 7.121149 8.187332 -24.71458 -4.332183 -86.70795 20.40046 12.83682 0 0 -26.94982 14.22422 15.22833 -2.443177
2.40614 99.524 25.77573 0.09252106 0.08761148 2.031786 3.181656 -33.67683 -3.944565 -0 10.67829 -0 -8.888861 3.592839 1.332516 -6.293345 15.49368 -12.05361 -0 11.19482 -0 4.367209 -22.13872 15.89443 -2.368083 -1.18742 2.819251 2.08315 10.62448 -7.657238 1.114408 22.07395 6.848025 4.077896 -22.95511 7.539511 2.73296 -17.16423 11.46647 90.39436 29.22745 -22.71651 -0 0 6.917325 -16.1603 9.131033 7.813144 8.365739 -25.80472 -5.088468 -85.13716 19.39753 10.39349 0 0 -29.13964 14.31759 15.17359 -2.943258
2.63009 98.19555 31.38844 0.7674923 -1.189363 2.55319 2.213966 -32.28049 -6.292194 -0 6.782176 -0 -9.8511 5.74929 1.354006 -6.646478 16.39466 -10.07061 -0 12.7523 -0 3.985027 -22.17865 14.60123 -2.443707 -1.44156 2.635922 1.734723 10.90894 -7.540962 1.132202 22.60584 6.355466 3.741591 -21.81684 6.875818 1.129241 -16.99666 11.34342 92.14371 25.87174 -23.4203 -0 0 4.947176 -18.17705 8.576374 8.654734 8.344811 -26.9527 -5.97095 -83.53935 17.89092 7.886629 0 0 -31.37989 14.33325 14.98609 -3.410528
